<?xml version="1.0" encoding="utf-8"?>
<!-- Generator: Adobe Illustrator 16.0.4, SVG Export Plug-In . SVG Version: 6.00 Build 0)  -->
<!DOCTYPE svg PUBLIC "-//W3C//DTD SVG 1.1//EN" "http://www.w3.org/Graphics/SVG/1.1/DTD/svg11.dtd">
<svg version="1.1" id="Layer_1" xmlns="http://www.w3.org/2000/svg" xmlns:xlink="http://www.w3.org/1999/xlink" x="0px" y="0px"
	 width="1440px" height="900px" viewBox="0 0 1440 900" enable-background="new 0 0 1440 900" xml:space="preserve">
<rect x="-216" y="-151" fill="#F4C290" width="1835" height="1121"/>
<g id="H6xEc9_1_" opacity="0.3">
	
		<image overflow="visible" enable-background="new    " width="1690" height="1119" id="H6xEc9" xlink:href="2ED6267246E0D749.jpg"  transform="matrix(0.9226 0 0 0.9229 -59.5791 -11.5669)">
	</image>
</g>
<g>
	<polygon fill="#343827" points="213.228,133.927 322.851,154.918 299.528,250.547 261.043,388.158 154.918,371.832 	"/>
	<polygon fill="#FFFEBE" points="179.609,486.5 191.271,539.5 196.26,539.5 206.231,486.5 	"/>
	<polygon fill="#FFFEBE" points="286.668,51.78 261.822,57.142 329.848,67.784 311.937,54.859 	"/>
	<path fill="#343827" d="M293.114,257.544c104.197-3.364,213.398,69.867,230.133,134.351
		c11.102,42.766-44.432,171.048-44.432,171.048s-11.801,104.692-15.238,161.091c18.812,0.526,13.25-0.552,13.25-0.552l13.693,33.998
		c0,0-17.232,16.69-23.834,26.021c-150.827,0-363.857,0-514.686,0c3.905-18.659,17.179-52.766,17.179-52.766l48.14-13.799
		l243.724,2.569c0,0,43.258-54.589,58.356-73.443c12.509-15.63,34.393-49.272,46.178-65.455
		c19.174-26.333,62.634-74.563,77.007-103.799c11.161-22.71,20.608-78.813,9.331-101.469c-10.074-20.24-68.042-43.145-77.404-46.771
		c-24.809-9.609-70.585-10.009-97.529-14.264C280.675,294.477,289.419,277.371,293.114,257.544z"/>
	<path fill="#343827" d="M38.5,556.092v32.653c0,0,275.705,21.971,315.94,75.803c5.551,7.427,34.312-60.567,25.123-61.809
		C264.502,587.191,38.5,556.092,38.5,556.092z"/>
	<g>
		<circle fill="#FFFFC2" cx="478.047" cy="361.979" r="64.529"/>
		<path fill="#F8763C" d="M508.368,361.2c0,17.178-13.922,31.101-31.096,31.101c-17.179,0-31.101-13.923-31.101-31.101
			c0-17.173,13.922-31.097,31.101-31.097C494.445,330.103,508.368,344.026,508.368,361.2z"/>
	</g>
	
		<path fill="none" stroke="#FFFEBE" stroke-width="4.6648" stroke-linecap="round" stroke-linejoin="round" stroke-miterlimit="10" d="
		M171.928,544.43"/>
	
		<path fill="none" stroke="#FFFEBE" stroke-width="4.6648" stroke-linecap="round" stroke-linejoin="round" stroke-miterlimit="10" d="
		M164.248,504.777"/>
	
		<path fill="none" stroke="#FFFEBE" stroke-width="4.6648" stroke-linecap="round" stroke-linejoin="round" stroke-miterlimit="10" d="
		M196.26,546.588"/>
	
		<path fill="none" stroke="#FFFEBE" stroke-width="4.6648" stroke-linecap="round" stroke-linejoin="round" stroke-miterlimit="10" d="
		M212.91,513.762"/>
	
		<path fill="none" stroke="#FFFEBE" stroke-width="4.6648" stroke-linecap="round" stroke-linejoin="round" stroke-miterlimit="10" d="
		M216.898,538.705"/>
	
		<path fill="none" stroke="#FFFEBE" stroke-width="4.6648" stroke-linecap="round" stroke-linejoin="round" stroke-miterlimit="10" d="
		M234.176,519.844"/>
	
		<path fill="none" stroke="#FFFEBE" stroke-width="4.6648" stroke-linecap="round" stroke-linejoin="round" stroke-miterlimit="10" d="
		M179.609,562.942"/>
	
		<path fill="none" stroke="#FFFEBE" stroke-width="4.6648" stroke-linecap="round" stroke-linejoin="round" stroke-miterlimit="10" d="
		M181.941,549.823"/>
	<polygon fill="#343827" points="129.274,362.458 119.847,384.361 159.45,418.666 237.454,420.638 256.9,405.752 261.043,388.158 	
		"/>
	<polygon fill="#343827" points="158.755,418.666 160.296,431.841 223.5,433.732 223.5,418.479 	"/>
	<polygon fill="#343827" points="168.5,426.5 168.5,451.133 168.5,469.792 216.5,469.405 216.5,456.188 216.5,426.5 	"/>
	<polygon fill="#343827" points="120.833,382.624 115.715,391.207 149.884,422.712 157.016,413.824 	"/>
	<polygon fill="#343827" points="122.869,391.122 110.873,406.073 102.149,416.949 129.347,440.159 135.523,432.454 
		149.884,414.555 	"/>
	<polygon fill="#343827" points="106.5,539.765 106.5,572.418 246.374,610.603 259.714,549.823 	"/>
	<polygon fill="#343827" points="229.556,151.419 312.355,167.747 329.848,71.566 261.043,61.045 	"/>
</g>
<g>
	<polygon fill="#343827" points="1368.506,459.707 1293.779,474.017 1309.679,539.203 1335.912,633.008 1408.254,621.88 	"/>
	<polygon fill="#FFFEBE" points="1391.423,700.5 1383.473,736.5 1380.072,736.5 1373.275,700.5 	"/>
	<polygon fill="#FFFEBE" points="1318.444,403.711 1335.381,407.366 1289.01,414.62 1301.22,405.81 	"/>
	<path fill="#343827" d="M1314.051,543.974c-71.027-2.294-145.467,47.625-156.874,91.582
		c-7.567,29.151,30.288,116.598,30.288,116.598s8.043,71.365,10.387,109.811c-12.824,0.358-9.031-0.377-9.031-0.377l-9.335,23.176
		c0,0,11.747,11.377,16.247,17.737c102.812,0,248.029,0,350.844,0c-2.662-12.72-11.71-35.969-11.71-35.969l-32.815-9.406
		l-166.139,1.752c0,0-29.487-37.212-39.779-50.064c-8.527-10.654-23.445-33.587-31.478-44.618
		c-13.071-17.95-42.696-50.827-52.494-70.757c-7.607-15.48-14.048-53.724-6.36-69.167c6.867-13.798,46.382-29.41,52.764-31.883
		c16.912-6.551,48.115-6.823,66.482-9.724C1322.529,569.149,1316.569,557.488,1314.051,543.974z"/>
	<path fill="#343827" d="M1487.5,747.483v22.259c0,0-187.883,14.977-215.311,51.672c-3.783,5.062-23.417-41.286-17.153-42.133
		C1333.47,768.683,1487.5,747.483,1487.5,747.483z"/>
	<g>
		<circle fill="#FFFFC2" cx="1187.987" cy="615.163" r="43.987"/>
		<circle fill="#F8763C" cx="1188.518" cy="614.632" r="21.198"/>
	</g>
	
		<path fill="none" stroke="#FFFEBE" stroke-width="3.1798" stroke-linecap="round" stroke-linejoin="round" stroke-miterlimit="10" d="
		M1396.659,739.534"/>
	
		<path fill="none" stroke="#FFFEBE" stroke-width="3.1798" stroke-linecap="round" stroke-linejoin="round" stroke-miterlimit="10" d="
		M1401.894,712.504"/>
	
		<path fill="none" stroke="#FFFEBE" stroke-width="3.1798" stroke-linecap="round" stroke-linejoin="round" stroke-miterlimit="10" d="
		M1380.072,741.005"/>
	
		<path fill="none" stroke="#FFFEBE" stroke-width="3.1798" stroke-linecap="round" stroke-linejoin="round" stroke-miterlimit="10" d="
		M1368.723,718.628"/>
	
		<path fill="none" stroke="#FFFEBE" stroke-width="3.1798" stroke-linecap="round" stroke-linejoin="round" stroke-miterlimit="10" d="
		M1366.004,735.632"/>
	
		<path fill="none" stroke="#FFFEBE" stroke-width="3.1798" stroke-linecap="round" stroke-linejoin="round" stroke-miterlimit="10" d="
		M1354.227,722.774"/>
	
		<path fill="none" stroke="#FFFEBE" stroke-width="3.1798" stroke-linecap="round" stroke-linejoin="round" stroke-miterlimit="10" d="
		M1391.423,752.153"/>
	
		<path fill="none" stroke="#FFFEBE" stroke-width="3.1798" stroke-linecap="round" stroke-linejoin="round" stroke-miterlimit="10" d="
		M1389.833,743.21"/>
	<polygon fill="#343827" points="1425.734,615.49 1432.16,630.42 1405.164,653.805 1351.991,655.149 1338.735,645.002 
		1335.912,633.008 	"/>
	<polygon fill="#343827" points="1405.636,653.805 1404.584,662.785 1361.5,664.075 1361.5,653.678 	"/>
	<polygon fill="#343827" points="1399.5,659.5 1399.5,675.937 1399.5,688.655 1366.5,688.392 1366.5,679.382 1366.5,659.5 	"/>
	<polygon fill="#343827" points="1431.488,629.235 1434.978,635.087 1411.685,656.562 1406.824,650.504 	"/>
	<polygon fill="#343827" points="1430.101,635.029 1438.277,645.221 1444.225,652.634 1425.685,668.455 1421.475,663.203 
		1411.685,651.003 	"/>
	<polygon fill="#343827" points="1441.5,736.354 1441.5,758.612 1346.031,784.642 1336.998,743.21 	"/>
	<polygon fill="#343827" points="1357.376,471.632 1300.934,482.762 1289.01,417.198 1335.912,410.026 	"/>
</g>
</svg>
