<?xml version="1.0" encoding="utf-8"?>
<!-- Generator: Adobe Illustrator 16.0.4, SVG Export Plug-In . SVG Version: 6.00 Build 0)  -->
<!DOCTYPE svg PUBLIC "-//W3C//DTD SVG 1.1//EN" "http://www.w3.org/Graphics/SVG/1.1/DTD/svg11.dtd">
<svg version="1.1" id="Layer_1" xmlns="http://www.w3.org/2000/svg" xmlns:xlink="http://www.w3.org/1999/xlink" x="0px" y="0px"
	 width="1440px" height="900px" viewBox="0 0 1440 900" enable-background="new 0 0 1440 900" xml:space="preserve">
<rect x="-84" y="-44" fill="#F7932F" width="1539" height="1081"/>
<g id="H6xEc9_2_" opacity="0.3">
	
		<image overflow="visible" enable-background="new    " width="1691" height="1120" id="H6xEc9_3_" xlink:href="156342758DED24F3.jpg"  transform="matrix(-0.922 0 0 -0.9223 1535.7969 979.4746)">
	</image>
</g>
<g>
	<path opacity="0.8" fill="#FFFFFF" d="M402,105.5c0,5.247-4.253,9.5-9.5,9.5h-201c-5.247,0-9.5-4.253-9.5-9.5l0,0
		c0-5.247,4.253-9.5,9.5-9.5h201C397.747,96,402,100.253,402,105.5L402,105.5z M379,116H204v329h175V116z M291.97,386.037
		c-125.39,0-227.036,101.646-227.036,227.035C64.934,738.465,166.58,830,291.97,830c125.389,0,227.036-91.535,227.036-216.928
		C519.006,487.684,417.359,386.037,291.97,386.037z"/>
	<path fill="#EE3E41" d="M493.602,585.291c0,111.361-87.629,232.591-198.988,232.591c-111.359,0-204.28-113.291-204.28-224.653
		c0-27.816,34.127-29.307,43.398-38.105c27.84-26.422,64.905,0,148.448,0c86.93,0,149.77-29.033,180.994,4.764
		C471.95,569.383,493.602,560.864,493.602,585.291z"/>
	<ellipse fill="#C51230" cx="291.968" cy="585.291" rx="201.634" ry="83.352"/>
	<path fill="#C51230" d="M470.57,646.583c5.569-4.003-27.653,26.386-74.95,50.805c-47.297,24.42-78.464,8.218-89.495,5.766
		c-6.695-1.488,38.493,12.777,85.79-11.642C428.132,672.812,461.773,652.906,470.57,646.583z"/>
	<path fill="#EE3E41" d="M117.958,565.756c12.049-14.844,106.906-44.059,116.665-45.438c9.759-1.379-67.963,30.156-79.439,39.964
		c-9.099,7.775-13.787,57.923-13.787,57.923S111.296,573.965,117.958,565.756z"/>
</g>
<g>
	<path opacity="0.8" fill="#FFFFFF" d="M1454-211.5c0,2.485-2.015,4.5-4.5,4.5h-100c-2.485,0-4.5-2.015-4.5-4.5l0,0
		c0-2.485,2.015-4.5,4.5-4.5h100C1451.985-216,1454-213.985,1454-211.5L1454-211.5z M1443-206h-87v164h87V-206z M1399.71-71.532
		c-62.285,0-112.776,50.491-112.776,112.776c0,62.287,50.491,107.756,112.776,107.756c62.286,0,112.777-45.469,112.777-107.756
		C1512.487-21.041,1461.996-71.532,1399.71-71.532z"/>
	<path fill="#EE3E41" d="M1499.868,27.444c0,55.317-43.528,115.536-98.844,115.536c-55.316,0-101.474-56.275-101.474-111.593
		c0-13.817,16.953-14.558,21.558-18.929c13.829-13.125,32.24,0,73.739,0c43.182,0,74.396-14.422,89.906,2.366
		C1489.112,19.542,1499.868,15.311,1499.868,27.444z"/>
	<ellipse fill="#C51230" cx="1399.709" cy="27.444" rx="100.159" ry="41.403"/>
	<path fill="#C51230" d="M1488.428,57.891c2.766-1.988-13.737,13.106-37.231,25.236c-23.493,12.13-38.976,4.082-44.454,2.864
		c-3.326-0.739,19.12,6.347,42.614-5.783C1467.348,70.919,1484.058,61.031,1488.428,57.891z"/>
	<path fill="#EE3E41" d="M1313.273,17.74c5.984-7.373,53.104-21.885,57.951-22.57c4.848-0.685-33.76,14.98-39.461,19.852
		c-4.52,3.862-6.849,28.772-6.849,28.772S1309.963,21.818,1313.273,17.74z"/>
</g>
<path opacity="0.8" fill="#FFFEFD" enable-background="new    " d="M668.331,202.521c42.887-0.22,85.978-0.438,128.866-0.657
	c-17.517,18.331-13.461,34.747-13.587,58.63c-0.213,41.395-0.384,82.789-0.596,124.183c-0.558,105.556-1.078,211.105-1.631,316.66
	c-0.165,31.64-0.319,63.275-0.488,94.914c-0.035,6.918-0.625,8.621-3.549,14.839c-6.861,14.591-22.911,29.831-42.791,28.632
	c-6.654-0.401-21.066-1.936-28.147-6.112c-6.017-3.546-12.146-14.448-15.998-20.545c-4.829-7.646-5.012-9.441-4.981-18.156
	c0.116-32.098,0.232-64.196,0.348-96.293c0.38-105.594,0.761-211.188,1.141-316.783c0.143-39.703,0.287-79.404,0.429-119.105
	c0.033-9.186,0.067-18.369,0.1-27.552C687.5,218.483,685.051,209.265,668.331,202.521z"/>
<path fill="#3CACE5" enable-background="new    " d="M699.295,496.73h66.938l-4.77,298.704c0,0-6.958,13.646-10.996,16.524
	c-3.883,2.772-13.684,4.725-18.454,4.847c-4.112,0.104-12.775,0.503-16.384-1.474c-3.863-2.119-9.152-9.682-11.294-13.528
	c-1.44-2.585-5.04-10.71-5.04-10.71V496.73z"/>
<path opacity="0.8" fill="#FFFEFD" enable-background="new    " d="M1007.39,200.281c42.883,0.562,85.771,1.123,128.649,1.684
	c-17.849,18.009-14.19,34.495-14.752,58.372c-0.972,41.384-1.941,82.767-2.914,124.147c-2.474,105.532-4.947,211.053-7.418,316.581
	c-0.747,31.627-1.486,63.264-2.227,94.885c-0.164,6.92-0.787,8.613-3.828,14.779c-7.124,14.461-23.453,29.406-43.315,27.844
	c-6.644-0.525-21.021-2.318-28.026-6.619c-5.954-3.656-11.47-14.658-15.206-20.824c-4.692-7.732-4.426-9.52-4.236-18.236
	c0.7-32.088,1.4-64.18,2.096-96.27c2.3-105.572,4.603-211.141,6.906-316.709c0.866-39.696,1.727-79.386,2.597-119.077
	c0.199-9.183,0.399-18.364,0.601-27.546C1026.676,216.6,1023.983,207.33,1007.39,200.281z"/>
<path fill="#32D89C" enable-background="new    " d="M1039.295,447.519h65.01l-2.934,350.712c0,0-7.175,13.32-11.269,16.127
	c-3.931,2.701-13.756,4.379-18.522,4.422c-4.111,0.031-12.78,0.227-16.347-1.82c-3.826-2.191-8.974-9.869-11.048-13.75
	c-1.395-2.609-4.891-10.42-4.891-10.42V447.519z"/>
<path opacity="0.8" fill="#FFFEFD" enable-background="new    " d="M837.912,183.924c42.883-0.347,85.769-0.691,128.653-1.036
	c-17.462,18.382-13.461,34.786-13.518,58.669c-0.096,41.397-0.19,82.79-0.284,124.182c-0.241,105.557-0.484,211.113-0.726,316.668
	c-0.072,31.636-0.146,63.276-0.218,94.914c-0.019,6.913-0.608,8.617-3.514,14.847c-6.817,14.605-22.823,29.899-42.715,28.756
	c-6.65-0.383-21.073-1.878-28.166-6.029c-6.028-3.531-11.774-14.411-15.645-20.5c-4.859-7.631-4.631-9.428-4.625-18.142
	c0.023-32.092,0.042-64.193,0.062-96.293c0.071-105.594,0.138-211.189,0.207-316.781c0.03-39.704,0.055-79.405,0.08-119.107
	c0.009-9.184,0.008-18.368,0.02-27.552C857.539,199.831,854.649,190.618,837.912,183.924z"/>
<path fill="#EE3E41" d="M870.048,520.67h64.383l-1.832,260.282c0,0-6.885,13.678-10.913,16.586
	c-3.866,2.791-13.656,4.791-18.425,4.946c-4.106,0.123-12.772,0.568-16.391-1.39c-3.874-2.1-9.204-9.633-11.369-13.469
	c-1.449-2.573-5.091-10.688-5.091-10.688L870.048,520.67z"/>
<path opacity="0.8" fill="#FFFEFD" enable-background="new    " d="M1176.863,184.075c42.884-0.412,85.77-0.822,128.654-1.233
	c-17.438,18.411-13.41,34.808-13.429,58.692c-0.033,41.395-0.062,82.791-0.096,124.184c-0.082,105.555-0.161,211.106-0.242,316.667
	c-0.024,31.633-0.048,63.277-0.073,94.914c-0.004,6.916-0.595,8.623-3.491,14.855c-6.794,14.623-22.778,29.93-42.67,28.822
	c-6.655-0.373-21.075-1.846-28.174-5.988c-6.033-3.514-11.799-14.395-15.677-20.467c-4.865-7.629-4.641-9.422-4.648-18.137
	c-0.027-32.098-0.057-64.195-0.084-96.293c-0.092-105.596-0.185-211.189-0.275-316.783c-0.037-39.704-0.071-79.403-0.105-119.107
	c-0.008-9.181-0.015-18.368-0.023-27.552C1196.516,199.952,1193.613,190.746,1176.863,184.075z"/>
<path fill="#EAEA28" enable-background="new    " d="M1218.047,317.51h61.675l0.512,463.881c0,0-6.876,13.479-10.899,16.383
	c-3.866,2.791-13.654,4.689-18.421,4.834c-4.109,0.125-12.771,0.516-16.384-1.445c-3.873-2.105-9.194-9.66-11.357-13.5
	c-1.453-2.576-5.125-10.305-5.125-10.305V317.51z"/>
<rect x="541" y="272" opacity="0.5" fill="#BF937F" width="961" height="46"/>
<rect x="541" y="323" opacity="0.5" fill="#806255" width="961" height="23"/>
<rect x="541" y="317" opacity="0.5" fill="#40312A" width="961" height="7"/>
<rect x="600" y="581" opacity="0.5" fill="#BF937F" width="961" height="46"/>
<rect x="600" y="632" opacity="0.5" fill="#806255" width="961" height="23"/>
<rect x="600" y="626" opacity="0.5" fill="#40312A" width="961" height="7"/>
<g id="H6xEc9_1_" opacity="0.3">
	
		<image overflow="visible" enable-background="new    " width="1691" height="1120" id="H6xEc9" xlink:href="156342758DED24F3.jpg"  transform="matrix(0.922 0 0 0.9223 -111.1909 -66.4741)">
	</image>
</g>
</svg>
