<?xml version="1.0" encoding="utf-8"?>
<!-- Generator: Adobe Illustrator 16.0.4, SVG Export Plug-In . SVG Version: 6.00 Build 0)  -->
<!DOCTYPE svg PUBLIC "-//W3C//DTD SVG 1.1//EN" "http://www.w3.org/Graphics/SVG/1.1/DTD/svg11.dtd">
<svg version="1.1" id="Layer_1" xmlns="http://www.w3.org/2000/svg" xmlns:xlink="http://www.w3.org/1999/xlink" x="0px" y="0px"
	 width="1440px" height="900px" viewBox="0 0 1440 900" enable-background="new 0 0 1440 900" xml:space="preserve">
<rect x="-196" y="-110" fill="#FFB14A" width="1835" height="1121"/>
<rect x="-203" y="-54" opacity="0.8" fill="#FFFEFD" enable-background="new    " width="1786" height="127"/>
<path opacity="0.8" fill="#FFFEFD" enable-background="new    " d="M122.917,293.774c42.695-4.049,85.391-8.097,128.086-12.146
	c-15.811,19.823-10.407,35.82-8.399,59.619c3.48,41.249,6.962,82.497,10.443,123.744c8.876,105.182,17.753,210.357,26.63,315.545
	c2.661,31.521,5.321,63.052,7.982,94.577c0.583,6.892,0.14,8.643-2.217,15.098c-5.53,15.146-20.158,31.756-40.071,32.339
	c-6.663,0.193-21.155-0.05-28.581-3.573c-6.31-2.99-12.977-13.342-17.357-19.064c-5.495-7.188-5.423-8.994-6.171-17.676
	c-2.751-31.979-5.503-63.96-8.254-95.938c-9.053-105.207-18.105-210.413-27.159-315.618c-3.403-39.558-6.807-79.11-10.21-118.667
	c-0.788-9.147-1.575-18.3-2.361-27.45C143.846,307.926,140.173,298.999,122.917,293.774z"/>
<path fill="#FCD3AC" d="M487.282,425.436"/>
<path opacity="0.5" fill="#EED400" enable-background="new    " d="M176.915,418h59.814l39.875,462.164
	c0,0-5.707,14.014-9.47,17.248c-3.617,3.109-13.207,5.831-17.944,6.381c-4.085,0.473-12.681,1.597-16.449-0.05
	c-4.037-1.77-9.98-8.847-12.461-12.487c-1.667-2.445-5.981-9.834-5.981-9.834L176.915,418z"/>
<path opacity="0.8" fill="#FFFEFD" enable-background="new    " d="M298.774,72.428c42.886-0.375,85.976-0.748,128.862-1.121
	c-17.451,18.394-13.335,34.795-13.375,58.679c-0.063,41.395-0.086,82.79-0.148,124.184c-0.178,105.556-0.318,211.108-0.49,316.665
	c-0.052,31.639-0.092,63.275-0.146,94.914c-0.011,6.918-0.595,8.623-3.495,14.852c-6.81,14.615-22.804,29.914-42.688,28.786
	c-6.655-0.378-21.072-1.859-28.169-6.011c-6.029-3.524-12.197-14.404-16.071-20.487c-4.856-7.629-5.046-9.424-5.046-18.138
	c0-32.099,0-64.198,0-96.294c0-105.594,0-211.19,0-316.785c0-39.703,0-79.404,0-119.107c0-9.185,0-18.368,0-27.552
	C318,88.321,315.519,79.111,298.774,72.428z"/>
<path opacity="0.8" fill="#FFFEFD" enable-background="new    " d="M542.971,198.234c42.085,8.258,84.168,16.516,126.253,24.776
	c-20.794,14.508-20.161,31.381-25.004,54.769c-8.392,40.537-16.783,81.072-25.173,121.606
	c-21.396,103.366-42.794,206.729-64.188,310.094c-6.414,30.98-12.827,61.967-19.239,92.942c-1.402,6.773-2.324,8.326-6.418,13.843
	c-9.608,12.946-28.355,24.72-47.613,19.611c-6.443-1.707-20.268-6.062-26.386-11.553c-5.197-4.666-8.647-16.48-11.218-23.219
	c-3.229-8.449-2.646-10.163-0.895-18.699c6.454-31.44,12.91-62.884,19.365-94.325c21.236-103.44,42.47-206.876,63.704-310.314
	c7.98-38.892,15.969-77.782,23.954-116.67c1.847-8.997,3.688-17.993,5.541-26.989C559.013,217.751,558.03,208.148,542.971,198.234z"
	/>
<path opacity="0.8" fill="#FFFEFD" enable-background="new    " d="M689.666,127.261c42.887-0.375,85.923-0.748,128.808-1.121
	c-17.448,18.394-13.357,34.795-13.396,58.679c-0.068,41.395-0.104,82.791-0.166,124.184c-0.173,105.556-0.325,211.108-0.498,316.665
	c-0.053,31.638-0.097,63.275-0.146,94.913c-0.01,6.918-0.596,8.624-3.497,14.853c-6.808,14.615-22.804,29.913-42.688,28.785
	c-6.655-0.377-21.073-1.858-28.169-6.011c-6.029-3.523-12.09-14.404-15.965-20.487c-4.857-7.628-4.938-9.424-4.938-18.138
	c0-32.099,0-64.197,0-96.292c0-105.596,0-211.191,0-316.787c0-39.703,0-79.404,0-119.106c0-9.184,0-18.368,0-27.552
	C709,143.153,706.412,133.944,689.666,127.261z"/>
<path opacity="0.8" fill="#FFFEFD" enable-background="new    " d="M828.721,208.96c42.695-4.049,85.396-8.097,128.086-12.146
	c-15.811,19.823-10.402,35.82-8.396,59.619c3.479,41.249,6.961,82.497,10.438,123.744c8.879,105.188,17.754,210.363,26.633,315.545
	c2.656,31.524,5.318,63.058,7.979,94.577c0.58,6.896,0.142,8.646-2.218,15.103c-5.529,15.144-20.158,31.756-40.073,32.339
	c-6.663,0.189-21.149-0.049-28.578-3.573c-6.311-2.995-12.978-13.342-17.354-19.069c-5.495-7.185-5.423-8.988-6.17-17.676
	c-2.751-31.979-5.503-63.958-8.259-95.938c-9.054-105.208-18.104-210.414-27.155-315.62c-3.403-39.559-6.812-79.112-10.21-118.667
	c-0.788-9.15-1.575-18.3-2.362-27.451C849.648,223.112,845.977,214.185,828.721,208.96z"/>
<path opacity="0.8" fill="#FFFEFD" enable-background="new    " d="M1159.055,49.712c42.083,8.257,84.168,16.516,126.251,24.775
	c-20.793,14.508-20.161,31.382-25.004,54.769c-8.393,40.537-16.782,81.072-25.173,121.606
	c-21.396,103.365-42.793,206.729-64.188,310.093c-6.413,30.979-12.827,61.963-19.24,92.943c-1.402,6.771-2.323,8.32-6.418,13.843
	c-9.606,12.941-28.354,24.715-47.613,19.607c-6.438-1.708-20.268-6.062-26.386-11.553c-5.196-4.667-8.646-16.479-11.218-23.219
	c-3.229-8.451-2.646-10.164-0.895-18.7c6.456-31.438,12.91-62.884,19.365-94.325c21.236-103.438,42.47-206.876,63.703-310.312
	c7.988-38.892,15.971-77.782,23.955-116.673c1.849-8.996,3.688-17.993,5.542-26.989
	C1175.096,69.229,1174.112,59.625,1159.055,49.712z"/>
<path opacity="0.7" fill="#1D6398" enable-background="new    " d="M343.59,391.632l59.619,0.343l-0.08,270.877
	c0,0-6.908,13.672-10.937,16.564c-3.872,2.787-13.667,4.773-18.437,4.913c-4.112,0.118-12.773,0.55-16.389-1.415
	c-3.871-2.104-9.187-9.648-11.343-13.487c-1.45-2.58-5.079-10.691-5.079-10.691L343.59,391.632z"/>
<path opacity="0.8" fill="#D01107" enable-background="new    " d="M549.464,391.357l61.155,0.85l-87.475,419.795
	c0,0-9.524,11.994-14.061,14.021c-4.353,1.942-14.347,1.917-19.046,1.095c-4.048-0.715-12.622-2.038-15.766-4.693
	c-3.367-2.843-7.054-11.302-8.395-15.496c-0.896-2.816-2.812-11.502-2.812-11.502L549.464,391.357z"/>
<path opacity="0.8" fill="#89250B" enable-background="new    " d="M738.361,393.626l59.619,0.342l-0.08,326.704
	c0,0-6.908,13.668-10.938,16.565c-3.873,2.787-13.666,4.771-18.435,4.913c-4.11,0.113-12.775,0.548-16.394-1.416
	c-3.87-2.104-9.185-9.647-11.344-13.488c-1.448-2.578-5.077-10.694-5.077-10.694L738.361,393.626z"/>
<path opacity="0.8" fill="#356A59" enable-background="new    " d="M886.707,393h59.812l39.875,400.355
	c0,0-5.703,14.014-9.472,17.243c-3.618,3.109-13.206,5.832-17.94,6.387c-4.084,0.473-12.684,1.598-16.448-0.055
	c-4.038-1.765-9.981-8.847-12.462-12.482c-1.666-2.445-5.98-9.834-5.98-9.834L886.707,393z"/>
<path opacity="0.8" fill="#981540" enable-background="new    " d="M1132.457,397.207l60.602,0.964l-53.832,259.328
	c0,0-9.521,11.993-14.056,14.021c-4.354,1.947-14.346,1.915-19.046,1.099c-4.046-0.715-12.621-2.039-15.766-4.692
	c-3.366-2.843-7.055-11.302-8.395-15.497c-0.896-2.815-2.812-11.501-2.812-11.501L1132.457,397.207z"/>
<rect x="-75" y="251" opacity="0.8" fill="#FFFEFD" enable-background="new    " width="1786" height="15"/>
<rect x="-173" y="511" opacity="0.8" fill="#FFFEFD" enable-background="new    " width="1786" height="15"/>
<rect x="-147" y="770" opacity="0.8" fill="#FFFEFD" enable-background="new    " width="1786" height="15"/>
<g id="H6xEc9_1_" opacity="0.2">
	
		<image overflow="visible" enable-background="new    " width="1691" height="1120" id="H6xEc9" xlink:href="156342758DED24F3.jpg"  transform="matrix(0.922 0 0 0.9223 -57.5068 -65.6748)">
	</image>
</g>
</svg>
